<?xml version="1.0" encoding="utf-8"?>
<!-- Generator: Adobe Illustrator 17.0.0, SVG Export Plug-In . SVG Version: 6.00 Build 0)  -->
<!DOCTYPE svg PUBLIC "-//W3C//DTD SVG 1.1//EN" "http://www.w3.org/Graphics/SVG/1.1/DTD/svg11.dtd">
<svg version="1.1"
	 id="svg249" xmlns:svg="http://www.w3.org/2000/svg" xmlns:cc="http://creativecommons.org/ns#" xmlns:sodipodi="http://sodipodi.sourceforge.net/DTD/sodipodi-0.dtd" xmlns:inkscape="http://www.inkscape.org/namespaces/inkscape" xmlns:rdf="http://www.w3.org/1999/02/22-rdf-syntax-ns#" xmlns:dc="http://purl.org/dc/elements/1.1/" inkscape:output_extension="org.inkscape.output.svg.inkscape" inkscape:version="0.46" sodipodi:version="0.32" sodipodi:docname="text-html.svg" sodipodi:docbase="/home/jimmac/src/cvs/tango-icon-theme/scalable/mimetypes"
	 xmlns="http://www.w3.org/2000/svg" xmlns:xlink="http://www.w3.org/1999/xlink" x="0px" y="0px" width="48px" height="48px"
	 viewBox="0 0 48 48" enable-background="new 0 0 48 48" xml:space="preserve">
<defs>
	
	
		<inkscape:perspective  inkscape:vp_z="48 : 24 : 1" id="perspective228" sodipodi:type="inkscape:persp3d" inkscape:vp_y="0 : 1000 : 0" inkscape:vp_x="0 : 24 : 1" inkscape:persp3d-origin="24 : 16 : 1">
		</inkscape:perspective>
</defs>
<sodipodi:namedview  inkscape:cy="21.843109" borderopacity="1.0" inkscape:cx="35.072186" bordercolor="#666666" pagecolor="#ffffff" showgrid="false" id="base" inkscape:zoom="1" inkscape:document-units="px" inkscape:current-layer="layer6" inkscape:pageopacity="0.0" inkscape:pageshadow="2" inkscape:showpageshadow="false" inkscape:grid-bbox="true" inkscape:window-width="872" inkscape:window-height="688" inkscape:window-x="188" inkscape:window-y="122">
	</sodipodi:namedview>
<g>
	<path fill="#00B3DD" d="M39.579,25.722l-5.07,5.07l-3.561-3.561l5.07-5.07c2.266-2.266,1.476-6.741-0.98-9.199
		c-2.457-2.457-6.932-3.246-9.199-0.98l-5.07,5.07l-3.561-3.561l5.07-5.07c4.077-4.077,11.623-3.163,16.042,1.258
		S43.656,21.646,39.579,25.722z"/>
	<path fill="#00B3DD" d="M30.886,34.415l-5.164,5.164c-4.077,4.077-11.623,3.163-16.043-1.257S4.345,26.355,8.422,22.28l5.164-5.164
		l3.561,3.561l-5.164,5.164c-2.266,2.266-1.476,6.741,0.98,9.199c2.457,2.457,6.932,3.246,9.199,0.98l5.164-5.164
		C27.325,30.855,30.886,34.415,30.886,34.415z"/>
	<g>
		<g>
			<g>
				<path fill="#00B3DD" d="M17.016,29.975c-0.672-0.672-0.637-1.805,0.075-2.519L27.427,17.12c0.713-0.713,1.847-0.748,2.52-0.077
					l1.011,1.011c0.672,0.672,0.637,1.805-0.075,2.519L20.547,30.91c-0.713,0.713-1.847,0.748-2.52,0.077
					C18.028,30.987,17.016,29.975,17.016,29.975z"/>
			</g>
		</g>
	</g>
</g>
</svg>
